<svg xmlns="http://www.w3.org/2000/svg" width="128" height="128" viewBox="0 0 128 128">
  <path d="M60.375 6.531a2.06 2.06 0 0 0-2.063 2.063v10.219c-8.31 1.037-15.923 4.332-22.219 9.219l-7.25-7.25a2.063 2.063 0 0 0-2.906 0l-5.156 5.156a2.063 2.063 0 0 0 0 2.906l7.25 7.25c-4.887 6.296-8.182 13.909-9.219 22.219H8.594a2.06 2.06 0 0 0-2.063 2.063v7.25a2.06 2.06 0 0 0 2.063 2.062h10.219c1.037 8.318 4.322 15.918 9.219 22.219l-7.25 7.25a2.063 2.063 0 0 0 0 2.906l5.156 5.156a2.063 2.063 0 0 0 2.906 0l7.25-7.25c6.296 4.887 13.899 8.172 22.219 9.219v10.219a2.06 2.06 0 0 0 2.063 2.063h7.25a2.06 2.06 0 0 0 2.062-2.063v-10.219c8.318-1.037 15.918-4.322 22.219-9.219l7.25 7.25a2.063 2.063 0 0 0 2.906 0l5.156-5.156a2.063 2.063 0 0 0 0-2.906l-7.25-7.25c4.897-6.301 8.182-13.901 9.219-22.219h10.219a2.06 2.06 0 0 0 2.063-2.062v-7.25a2.06 2.06 0 0 0-2.063-2.063h-10.219c-1.037-8.311-4.332-15.924-9.219-22.219l7.25-7.25a2.063 2.063 0 0 0 0-2.906l-5.156-5.156a2.063 2.063 0 0 0-2.906 0l-7.25 7.25c-6.295-4.887-13.9-8.182-22.219-9.219V8.594a2.06 2.06 0 0 0-2.062-2.063h-7.25z"/>
</svg>
